<svg xmlns="http://www.w3.org/2000/svg" viewBox="0 0 28.87 28.87"><g data-name="Layer 2"><g data-name="Layer 1"><rect width="28.87" height="28.87" fill="#ffc122" rx="6.48" ry="6.48"/><path fill="#fff" fill-rule="evenodd" d="M11.73 21.25a3.82 3.82 0 0 1-1.49-.34 4.3 4.3 0 0 1-2.6-3.68v-5.32A4.32 4.32 0 0 1 10.8 7.8a16.42 16.42 0 0 1 4.83 0 4.42 4.42 0 0 1 2.91 2.83c.27 1.08.09 2 .78 2.1s1 .06 1.33.1a.67.67 0 0 1 .58.71c0 3.86 0 4.3-.4 5.15a4.32 4.32 0 0 1-3.56 2.54h-5.54zm5-3.55a.81.81 0 1 0 0-1.62h-4.7A.81.81 0 1 0 12 17.7zm-2.23-4.92a.82.82 0 1 0-.24-1.61h-2.32a.81.81 0 0 0 .06 1.62s2.3.02 2.5-.01z"/></g></g></svg>